<mxfile host="app.diagrams.net" agent="Mozilla/5.0 (Windows NT 10.0; Win64; x64) AppleWebKit/537.36 (KHTML, like Gecko) Chrome/132.0.0.0 Safari/537.36 OPR/117.0.0.0" version="26.0.16">
  <diagram name="Page-1" id="dF9hiS6kCJigNhF2XBtt">
    <mxGraphModel dx="2474" dy="869" grid="1" gridSize="10" guides="1" tooltips="1" connect="1" arrows="1" fold="1" page="1" pageScale="1" pageWidth="850" pageHeight="1100" math="0" shadow="0">
      <root>
        <mxCell id="0" />
        <mxCell id="1" parent="0" />
        <mxCell id="RA7v9M5Lo8Uv7JnHNY3p-36" value="" style="rounded=0;whiteSpace=wrap;html=1;fillColor=none;" vertex="1" parent="1">
          <mxGeometry x="-260" y="110" width="860" height="640" as="geometry" />
        </mxCell>
        <mxCell id="RA7v9M5Lo8Uv7JnHNY3p-35" value="" style="rounded=0;whiteSpace=wrap;html=1;fillColor=none;" vertex="1" parent="1">
          <mxGeometry x="-230" y="140" width="800" height="580" as="geometry" />
        </mxCell>
        <mxCell id="RA7v9M5Lo8Uv7JnHNY3p-1" value="" style="rounded=0;whiteSpace=wrap;html=1;" vertex="1" parent="1">
          <mxGeometry x="-190" y="180" width="120" height="350" as="geometry" />
        </mxCell>
        <mxCell id="RA7v9M5Lo8Uv7JnHNY3p-2" value="Sources" style="rounded=0;whiteSpace=wrap;html=1;" vertex="1" parent="1">
          <mxGeometry x="-190" y="170" width="120" height="30" as="geometry" />
        </mxCell>
        <mxCell id="RA7v9M5Lo8Uv7JnHNY3p-3" value="" style="rounded=0;whiteSpace=wrap;html=1;" vertex="1" parent="1">
          <mxGeometry x="-60" y="170" width="470" height="520" as="geometry" />
        </mxCell>
        <mxCell id="RA7v9M5Lo8Uv7JnHNY3p-4" value="" style="rounded=0;whiteSpace=wrap;html=1;" vertex="1" parent="1">
          <mxGeometry x="420" y="180" width="120" height="350" as="geometry" />
        </mxCell>
        <mxCell id="RA7v9M5Lo8Uv7JnHNY3p-5" value="Consumer" style="rounded=0;whiteSpace=wrap;html=1;" vertex="1" parent="1">
          <mxGeometry x="420" y="170" width="120" height="30" as="geometry" />
        </mxCell>
        <mxCell id="RA7v9M5Lo8Uv7JnHNY3p-6" value="Data Warehouse" style="rounded=0;whiteSpace=wrap;html=1;" vertex="1" parent="1">
          <mxGeometry x="-60" y="170" width="470" height="30" as="geometry" />
        </mxCell>
        <mxCell id="RA7v9M5Lo8Uv7JnHNY3p-7" value="Bronze Layer" style="rounded=0;whiteSpace=wrap;html=1;fillColor=#ffe6cc;strokeColor=#d79b00;" vertex="1" parent="1">
          <mxGeometry x="-50" y="210" width="140" height="30" as="geometry" />
        </mxCell>
        <mxCell id="RA7v9M5Lo8Uv7JnHNY3p-8" value="" style="rounded=0;whiteSpace=wrap;html=1;" vertex="1" parent="1">
          <mxGeometry x="-50" y="250" width="140" height="430" as="geometry" />
        </mxCell>
        <mxCell id="RA7v9M5Lo8Uv7JnHNY3p-9" value="Silver Layer" style="rounded=0;whiteSpace=wrap;html=1;fillColor=#f5f5f5;fontColor=#333333;strokeColor=#666666;" vertex="1" parent="1">
          <mxGeometry x="100" y="210" width="150" height="30" as="geometry" />
        </mxCell>
        <mxCell id="RA7v9M5Lo8Uv7JnHNY3p-10" value="" style="rounded=0;whiteSpace=wrap;html=1;" vertex="1" parent="1">
          <mxGeometry x="100" y="250" width="150" height="430" as="geometry" />
        </mxCell>
        <mxCell id="RA7v9M5Lo8Uv7JnHNY3p-11" value="Gold Layer" style="rounded=0;whiteSpace=wrap;html=1;fillColor=#fff2cc;strokeColor=#d6b656;" vertex="1" parent="1">
          <mxGeometry x="260" y="210" width="140" height="30" as="geometry" />
        </mxCell>
        <mxCell id="RA7v9M5Lo8Uv7JnHNY3p-12" value="" style="rounded=0;whiteSpace=wrap;html=1;" vertex="1" parent="1">
          <mxGeometry x="260" y="250" width="140" height="430" as="geometry" />
        </mxCell>
        <mxCell id="RA7v9M5Lo8Uv7JnHNY3p-13" value="" style="endArrow=none;html=1;rounded=0;" edge="1" parent="1">
          <mxGeometry width="50" height="50" relative="1" as="geometry">
            <mxPoint x="-167" y="450" as="sourcePoint" />
            <mxPoint x="-107" y="450" as="targetPoint" />
          </mxGeometry>
        </mxCell>
        <mxCell id="RA7v9M5Lo8Uv7JnHNY3p-20" value="Json" style="text;html=1;align=center;verticalAlign=middle;whiteSpace=wrap;rounded=0;" vertex="1" parent="1">
          <mxGeometry x="-163" y="470" width="60" height="30" as="geometry" />
        </mxCell>
        <mxCell id="RA7v9M5Lo8Uv7JnHNY3p-21" value="" style="html=1;verticalLabelPosition=bottom;align=center;labelBackgroundColor=#ffffff;verticalAlign=top;strokeWidth=2;strokeColor=#d79b00;shadow=0;dashed=0;shape=mxgraph.ios7.icons.data;fillColor=#ffe6cc;" vertex="1" parent="1">
          <mxGeometry x="8" y="290" width="24" height="29.099999999999998" as="geometry" />
        </mxCell>
        <mxCell id="RA7v9M5Lo8Uv7JnHNY3p-22" value="" style="html=1;verticalLabelPosition=bottom;align=center;labelBackgroundColor=#ffffff;verticalAlign=top;strokeWidth=2;strokeColor=#666666;shadow=0;dashed=0;shape=mxgraph.ios7.icons.data;fillColor=#f5f5f5;fontColor=#333333;" vertex="1" parent="1">
          <mxGeometry x="168" y="290" width="24" height="29.099999999999998" as="geometry" />
        </mxCell>
        <mxCell id="RA7v9M5Lo8Uv7JnHNY3p-23" value="" style="html=1;verticalLabelPosition=bottom;align=center;labelBackgroundColor=#ffffff;verticalAlign=top;strokeWidth=2;strokeColor=#d6b656;shadow=0;dashed=0;shape=mxgraph.ios7.icons.data;fillColor=#fff2cc;" vertex="1" parent="1">
          <mxGeometry x="318" y="290" width="24" height="29.099999999999998" as="geometry" />
        </mxCell>
        <mxCell id="RA7v9M5Lo8Uv7JnHNY3p-25" value="Raw" style="text;html=1;align=center;verticalAlign=middle;whiteSpace=wrap;rounded=0;" vertex="1" parent="1">
          <mxGeometry x="-10" y="250" width="60" height="30" as="geometry" />
        </mxCell>
        <mxCell id="RA7v9M5Lo8Uv7JnHNY3p-26" value="Business Ready" style="text;html=1;align=center;verticalAlign=middle;whiteSpace=wrap;rounded=0;" vertex="1" parent="1">
          <mxGeometry x="300" y="250" width="60" height="30" as="geometry" />
        </mxCell>
        <mxCell id="RA7v9M5Lo8Uv7JnHNY3p-27" value="Cleaned and Standardized" style="text;html=1;align=center;verticalAlign=middle;whiteSpace=wrap;rounded=0;" vertex="1" parent="1">
          <mxGeometry x="145" y="250" width="60" height="30" as="geometry" />
        </mxCell>
        <mxCell id="RA7v9M5Lo8Uv7JnHNY3p-28" value="Object type&lt;div&gt;&lt;br&gt;&lt;/div&gt;&lt;div&gt;Load :&lt;/div&gt;&lt;div&gt;&lt;ul&gt;&lt;li&gt;Batch Processing&lt;/li&gt;&lt;li&gt;Full Load&lt;/li&gt;&lt;li&gt;Truncate &amp;amp; Insert&lt;/li&gt;&lt;/ul&gt;&lt;div&gt;No transformation&lt;/div&gt;&lt;/div&gt;&lt;div&gt;DataModel None&lt;/div&gt;" style="text;html=1;align=left;verticalAlign=middle;whiteSpace=wrap;rounded=0;" vertex="1" parent="1">
          <mxGeometry x="-30" y="362.5" width="100" height="135" as="geometry" />
        </mxCell>
        <mxCell id="RA7v9M5Lo8Uv7JnHNY3p-29" value="Object Type:View&lt;br&gt;&lt;div&gt;No Load&lt;/div&gt;&lt;div&gt;Transformation&lt;/div&gt;&lt;div&gt;&lt;ul&gt;&lt;li&gt;Data intergration&lt;/li&gt;&lt;li&gt;Aggregation&lt;/li&gt;&lt;li&gt;Business Logic&lt;/li&gt;&lt;/ul&gt;&lt;/div&gt;&lt;div&gt;DataModel&amp;nbsp;&lt;/div&gt;&lt;div&gt;&lt;ul&gt;&lt;li&gt;Snowflake Schema&lt;/li&gt;&lt;li&gt;Flat table&lt;/li&gt;&lt;li&gt;AggregatedTable&lt;/li&gt;&lt;/ul&gt;&lt;/div&gt;" style="text;html=1;align=left;verticalAlign=middle;whiteSpace=wrap;rounded=0;" vertex="1" parent="1">
          <mxGeometry x="265" y="340" width="115" height="210" as="geometry" />
        </mxCell>
        <mxCell id="RA7v9M5Lo8Uv7JnHNY3p-30" value="&lt;font&gt;Object type&lt;/font&gt;&lt;div&gt;&lt;font&gt;&lt;br&gt;&lt;/font&gt;&lt;/div&gt;&lt;div&gt;&lt;font&gt;Load :&lt;/font&gt;&lt;/div&gt;&lt;div&gt;&lt;ul&gt;&lt;li&gt;&lt;font&gt;Batch Processing&lt;/font&gt;&lt;/li&gt;&lt;li&gt;Incremental Load to preserve history&lt;/li&gt;&lt;/ul&gt;&lt;div&gt;Transformation&lt;/div&gt;&lt;/div&gt;&lt;div&gt;&lt;ul&gt;&lt;li&gt;Data Cleaning&lt;br&gt;&lt;/li&gt;&lt;li&gt;Data Standardization&lt;/li&gt;&lt;li&gt;Data Normalization&lt;/li&gt;&lt;li&gt;Derive Columns&lt;/li&gt;&lt;li&gt;Data Enrichment&lt;/li&gt;&lt;/ul&gt;&lt;/div&gt;&lt;div&gt;&lt;font&gt;DataModel None&lt;/font&gt;&lt;/div&gt;" style="text;html=1;align=left;verticalAlign=middle;whiteSpace=wrap;rounded=0;" vertex="1" parent="1">
          <mxGeometry x="120" y="485" width="100" height="35" as="geometry" />
        </mxCell>
        <mxCell id="RA7v9M5Lo8Uv7JnHNY3p-31" value="" style="image;aspect=fixed;html=1;points=[];align=center;fontSize=12;image=img/lib/azure2/power_platform/PowerBI.svg;" vertex="1" parent="1">
          <mxGeometry x="458.5" y="290" width="43" height="57.34" as="geometry" />
        </mxCell>
        <mxCell id="RA7v9M5Lo8Uv7JnHNY3p-33" value="FPL API" style="aspect=fixed;sketch=0;html=1;dashed=0;whitespace=wrap;verticalLabelPosition=bottom;verticalAlign=top;fillColor=#2875E2;strokeColor=#ffffff;points=[[0.005,0.63,0],[0.1,0.2,0],[0.9,0.2,0],[0.5,0,0],[0.995,0.63,0],[0.72,0.99,0],[0.5,1,0],[0.28,0.99,0]];shape=mxgraph.kubernetes.icon2;kubernetesLabel=1;prIcon=api" vertex="1" parent="1">
          <mxGeometry x="-153" y="325" width="50" height="48" as="geometry" />
        </mxCell>
      </root>
    </mxGraphModel>
  </diagram>
</mxfile>
